<svg xmlns="http://www.w3.org/2000/svg" viewBox="0 0 50.38 99.88"><defs><style>.cls-1{fill:none;}.cls-2{fill:#f6f6f6;}</style></defs><g id="Capa_2" data-name="Capa 2"><g id="Capa_3" data-name="Capa 3"><path class="cls-1" d="M42.07,49.67a1.5,1.5,0,0,1-1.5,1.5,15.64,15.64,0,0,0-3.49.51,4.56,4.56,0,0,0,1.08,1.11c1.48,1.05,3.36,1,5.44-.1,1.27-.68,2.72-3.62,3.54-5.94-2-1.64-4.83-3.38-6.58-3.38a1.94,1.94,0,0,0-.6.08,5.14,5.14,0,0,0-3.85,4.18,4.91,4.91,0,0,0,0,1.21,17,17,0,0,1,4.5-.67A1.5,1.5,0,0,1,42.07,49.67Z"/><path class="cls-1" d="M10.11,53.62a1.51,1.51,0,0,1,1.71-1.25,30.94,30.94,0,0,1,5.08,1.36,6.81,6.81,0,0,0,.21-2.61c-.33-2.59-2.22-4.62-5.32-5.72C10,44.78,5.9,46.47,3.07,48.07c.34,3.6,1.54,8.86,3.68,10a6.54,6.54,0,0,0,7.13,0,7.34,7.34,0,0,0,1.68-1.61,28.48,28.48,0,0,0-4.2-1.12A1.5,1.5,0,0,1,10.11,53.62Z"/><path class="cls-1" d="M27.28,25.55h0A1.5,1.5,0,0,1,28.78,27l0,11.67A9.75,9.75,0,0,0,38.9,33.57c3.18-5.74,2.29-16.49-10-28.63l-.15,17.19a1.5,1.5,0,0,1-1.5,1.48h0a1.48,1.48,0,0,1-1.48-1.51l.15-17.23c-11.17,10.54-13.31,21.47-10.28,28a9.54,9.54,0,0,0,10.18,5.63l0-11.4A1.51,1.51,0,0,1,27.28,25.55Z"/><path class="cls-1" d="M28.23,72.12l-18,.07a2.68,2.68,0,0,0-2.08,1,2.64,2.64,0,0,0-.52,2.22c1.85,8.46,7.77,22.5,19.85,21.48.18,0-.16,0,0,0s-.23,0,0,0c.44,0-.41,0,0,0,12.06,0,17.5-16.3,18.47-21.44a3,3,0,0,0-.6-2.52,1.86,1.86,0,0,0-1.43-.74l-15.66-.07c-.28,0,.23.14,0,0C28,72.26,28.5,72.12,28.23,72.12Z"/><path class="cls-2" d="M29.15,58.81c.08-3,3-5,5.05-6.05a7.81,7.81,0,0,0,2.23,2.48,7.08,7.08,0,0,0,4.13,1.3A9.35,9.35,0,0,0,45,55.33c3.05-1.62,5-7.47,5.31-8.63a1.52,1.52,0,0,0-.43-1.55c-1.1-1-6.77-5.87-10.85-4.55a8.16,8.16,0,0,0-5.9,6.57,8.57,8.57,0,0,0,.06,2.77,13.33,13.33,0,0,0-4.31,3.27l-.05-11.48a13.1,13.1,0,0,0,1.39.08A12.86,12.86,0,0,0,41.53,35c4.1-7.4,2.83-20.39-13.06-34.63L28.39.32A1.51,1.51,0,0,0,27.47,0h-.12a1.46,1.46,0,0,0-.87.36C11,13.43,9.47,26.7,12.93,34.1a12.52,12.52,0,0,0,12.91,7.37l.08,17.91a19.25,19.25,0,0,0-6.22-4.49,9.9,9.9,0,0,0,.38-4.15c-.27-2.18-1.59-6.14-7.28-8.17C8.86,41.17,2,45.16.72,46A1.5,1.5,0,0,0,0,47.34c.07,1.11.77,10.88,5.29,13.4a10.51,10.51,0,0,0,5.13,1.41,9,9,0,0,0,5.14-1.6,10.16,10.16,0,0,0,2.85-2.92C22,59.37,25.75,62.3,26,67v2.18H10.2a5.67,5.67,0,0,0-5.53,6.86C8,91.33,17.26,99.86,27,99.86c.48,0-.49,0,0,0,.14,0-.12,0,0,0h0c.56,0-.52,0,0,0,14.3,0,20.75-18.12,21.83-23.85a6.12,6.12,0,0,0-1.24-5,4.88,4.88,0,0,0-3.74-1.82H29v-2c0-.05,0,.06,0,0s0,.09,0,0l.2-8.34m7-11.18A5.14,5.14,0,0,1,40,43.45a1.94,1.94,0,0,1,.6-.08c1.75,0,4.59,1.74,6.58,3.38-.82,2.32-2.27,5.26-3.54,5.94-2.08,1.11-4,1.15-5.44.1a4.56,4.56,0,0,1-1.08-1.11,15.64,15.64,0,0,1,3.49-.51,1.5,1.5,0,1,0,0-3,17,17,0,0,0-4.5.67A4.91,4.91,0,0,1,36.11,47.63ZM13.88,58.07a6.54,6.54,0,0,1-7.13,0c-2.14-1.19-3.34-6.45-3.68-10,2.83-1.6,7-3.29,8.72-2.67,3.1,1.1,5,3.13,5.32,5.72a6.81,6.81,0,0,1-.21,2.61,30.94,30.94,0,0,0-5.08-1.36,1.5,1.5,0,0,0-.46,3,28.48,28.48,0,0,1,4.2,1.12A7.34,7.34,0,0,1,13.88,58.07ZM28.23,72.12l15.66.07a1.86,1.86,0,0,1,1.43.74,3,3,0,0,1,.6,2.52c-1,5.14-6.41,21.44-18.47,21.44-.41,0,.44,0,0,0-.23,0,.2-.08,0,0s.18,0,0,0c-12.08,1-18-13-19.85-21.48a2.64,2.64,0,0,1,.52-2.22,2.68,2.68,0,0,1,2.08-1m5.45-39.36c-3-6.49-.89-17.42,10.28-28L25.78,22.1a1.48,1.48,0,0,0,1.48,1.51h0a1.5,1.5,0,0,0,1.5-1.48l.15-17.19c12.26,12.14,13.15,22.89,10,28.63a9.75,9.75,0,0,1-10.07,5.14l0-11.67a1.5,1.5,0,0,0-1.5-1.49h0a1.51,1.51,0,0,0-1.5,1.51l0,11.4A9.54,9.54,0,0,1,15.65,32.83Z"/></g></g></svg>